<svg width="934" height="934" viewBox="0 0 934 934" fill="none" xmlns="http://www.w3.org/2000/svg">
<g clip-path="url(#clip0_626_5)">
<rect x="1" y="173" width="932" height="585" fill="white"/>
<path d="M164.8 1.46664C123.333 6.26664 84.6667 25.0666 54.8 54.8C28.9333 80.6666 12 111.867 3.73332 149.733L0.666656 163.333V466.667V770L3.73332 783.6C12 820.933 28.1333 851.2 53.6 877.2C83.8667 907.867 123.2 927.067 166 932C182.533 933.867 750.8 933.867 767.333 932C849.067 922.667 913.467 862.667 930.267 780.533C932.533 769.333 932.667 752.533 932.667 466V163.333L929.6 149.733C913.067 74.6666 859.6 21.0666 784.267 3.73331L771.333 0.799976L472.667 0.533309C308.4 0.399976 169.867 0.799976 164.8 1.46664ZM700 292V350.667H466.667H233.333V292V233.333H466.667H700V292ZM336.533 477.6C343.2 508.533 361.333 537.067 386.667 556.267C397.6 564.667 418.8 575.067 432.667 578.933C441.733 581.467 446.667 581.867 466.667 581.867C494.267 581.867 503.2 579.867 524.667 569.467C562 551.2 588.133 517.867 596.8 477.6L599.067 466.667H649.6H700V473.6C700 492.8 695.467 517.733 687.867 540.533C653.067 645.467 548.133 711.733 438.4 698.133C330.4 684.667 247.2 600.267 234.667 491.333C234 484.667 233.333 476.533 233.333 472.933V466.667H283.733H334.267L336.533 477.6Z" fill="#276EF1"/>
</g>
<defs>
<clipPath id="clip0_626_5">
<rect width="933.333" height="933.333" fill="white"/>
</clipPath>
</defs>
</svg>
